<svg xmlns="http://www.w3.org/2000/svg" xmlns:xlink="http://www.w3.org/1999/xlink" width="1366" height="352" viewBox="0 0 1366 352">
  <defs>
    <style>
      .cls-1, .cls-2, .cls-3 {
        fill-rule: evenodd;
      }

      .cls-1 {
        opacity: 0.73;
        fill: url(#linear-gradient);
      }

      .cls-2 {
        opacity: 0.42;
        fill: url(#linear-gradient-2);
      }

      .cls-3 {
        opacity: 0.25;
        fill: url(#linear-gradient-3);
      }

      .cls-4 {
        font-size: 30px;
        fill: #fff;
        font-family: "Roboto Mono";
        font-weight: 600;
      }
    </style>
    <linearGradient id="linear-gradient" y1="121" x2="1368" y2="121" gradientUnits="userSpaceOnUse">
      <stop offset="0" stop-color="#00b0fe"/>
      <stop offset="1" stop-color="#b8daf1"/>
    </linearGradient>
    <linearGradient id="linear-gradient-2" x1="-1" y1="122" x2="1375.12" y2="122" gradientUnits="userSpaceOnUse">
      <stop offset="0" stop-color="#46aaef"/>
      <stop offset="0.876" stop-color="#8fdcdf"/>
      <stop offset="1" stop-color="#8fdcdf"/>
    </linearGradient>
    <linearGradient id="linear-gradient-3" x1="1367" y1="132.939" x2="-1" y2="109.061" gradientUnits="userSpaceOnUse">
      <stop offset="0" stop-color="#6fcfe7"/>
      <stop offset="1" stop-color="#5fa6ee"/>
    </linearGradient>
  </defs>
  <path id="形状_1" data-name="形状 1" class="cls-1" d="M0,352s77.375-71.921,164-65c58.646,4.685,127.343,24.925,209-27,70.426-44.784,79.771-37.96,151-25,105.823,19.254,121.532,34.6,223-27,40.968-24.871,83.892-106.032,191-101,100.82,4.736,129.67,55.174,282,4,42.96-14.433,148-121,148-121V-110H0V352Z"/>
  <path id="形状_2" data-name="形状 2" class="cls-2" d="M0-109L-1,353s62.075-55.767,188-38c47.317,6.676,78.373-46.557,146-57,58.472-9.029,164.636,43.943,249,30,72.74-12.022,120.014-41.38,183-99s216.4-91.972,314-57c73,26.155,115.29,32.843,156-3,61.87-54.479,105.83-106.12,129-134s3-103,3-103Z"/>
  <path id="形状_3" data-name="形状 3" class="cls-3" d="M-1-110V352c62.2-.1,84.431-24.679,142-23,101.368,2.956,83.4-71.03,160-77,69.446-5.413,75.48,40.258,151,36,88.44-4.987,98-57.134,183-70,57.918-8.767,119.8,29.855,173,13,59.273-18.781,57.625-79.95,146-70,48.17,5.423,68.21,20.1,105,8,54.66-17.975,79.72-75.3,157-96,89.26-23.9,151-74.723,151-80V-108Z"/>
  <text id="Hey_I_m_Danica" data-name="Hey, I’m Danica" class="cls-4" x="65.139" y="129.038">Hey,<tspan x="65.139" dy="72">I’m Danica</tspan></text>
</svg>
